<mxfile host="65bd71144e">
    <diagram id="3N83PX3DbK2ato5jyDla" name="Page-1">
        <mxGraphModel dx="2087" dy="958" grid="1" gridSize="10" guides="1" tooltips="1" connect="1" arrows="1" fold="1" page="1" pageScale="1" pageWidth="850" pageHeight="1100" math="0" shadow="0">
            <root>
                <mxCell id="0"/>
                <mxCell id="1" parent="0"/>
                <mxCell id="22" value="" style="rounded=0;whiteSpace=wrap;html=1;fillColor=#EBEBEB;strokeColor=#666666;fontColor=#333333;" vertex="1" parent="1">
                    <mxGeometry x="-160" y="60" width="910" height="510" as="geometry"/>
                </mxCell>
                <mxCell id="20" value="" style="rounded=0;whiteSpace=wrap;html=1;fillColor=#dae8fc;strokeColor=#6c8ebf;" vertex="1" parent="1">
                    <mxGeometry x="90" y="120" width="630" height="420" as="geometry"/>
                </mxCell>
                <mxCell id="5" value="" style="aspect=fixed;html=1;points=[];align=center;image;fontSize=12;image=img/lib/azure2/compute/Virtual_Machine.svg;" vertex="1" parent="1">
                    <mxGeometry x="173.04" y="220" width="53.91" height="50" as="geometry"/>
                </mxCell>
                <mxCell id="6" value="" style="aspect=fixed;html=1;points=[];align=center;image;fontSize=12;image=img/lib/azure2/compute/Virtual_Machine.svg;" vertex="1" parent="1">
                    <mxGeometry x="373.04999999999995" y="220" width="53.91" height="50" as="geometry"/>
                </mxCell>
                <mxCell id="7" value="" style="aspect=fixed;html=1;points=[];align=center;image;fontSize=12;image=img/lib/azure2/compute/Virtual_Machine.svg;" vertex="1" parent="1">
                    <mxGeometry x="373.04999999999995" y="420" width="53.91" height="50" as="geometry"/>
                </mxCell>
                <mxCell id="8" value="" style="aspect=fixed;html=1;points=[];align=center;image;fontSize=12;image=img/lib/azure2/compute/Virtual_Machine.svg;" vertex="1" parent="1">
                    <mxGeometry x="173.04" y="420" width="53.91" height="50" as="geometry"/>
                </mxCell>
                <mxCell id="9" value="SBA-FE" style="text;html=1;align=center;verticalAlign=middle;whiteSpace=wrap;rounded=0;fontColor=#000000;" vertex="1" parent="1">
                    <mxGeometry x="170" y="280" width="60" height="30" as="geometry"/>
                </mxCell>
                <mxCell id="10" value="SBA-BE" style="text;html=1;strokeColor=none;fillColor=none;align=center;verticalAlign=middle;whiteSpace=wrap;rounded=0;fontColor=#000000;" vertex="1" parent="1">
                    <mxGeometry x="373.05" y="480" width="60" height="30" as="geometry"/>
                </mxCell>
                <mxCell id="11" value="SBA-BE" style="text;html=1;strokeColor=none;fillColor=none;align=center;verticalAlign=middle;whiteSpace=wrap;rounded=0;fontColor=#000000;" vertex="1" parent="1">
                    <mxGeometry x="373.05" y="280" width="60" height="30" as="geometry"/>
                </mxCell>
                <mxCell id="12" value="SBA-FE" style="text;html=1;strokeColor=none;fillColor=none;align=center;verticalAlign=middle;whiteSpace=wrap;rounded=0;fontColor=#000000;" vertex="1" parent="1">
                    <mxGeometry x="173.04" y="480" width="60" height="30" as="geometry"/>
                </mxCell>
                <mxCell id="13" value="" style="sketch=0;aspect=fixed;html=1;points=[];align=center;image;fontSize=12;image=img/lib/mscae/Azure_Database_for_PostgreSQL_servers.svg;" vertex="1" parent="1">
                    <mxGeometry x="590" y="220" width="38" height="50" as="geometry"/>
                </mxCell>
                <mxCell id="14" value="" style="sketch=0;aspect=fixed;html=1;points=[];align=center;image;fontSize=12;image=img/lib/mscae/Azure_Database_for_PostgreSQL_servers.svg;" vertex="1" parent="1">
                    <mxGeometry x="591" y="420" width="38" height="50" as="geometry"/>
                </mxCell>
                <mxCell id="15" value="PostgreSQL" style="text;html=1;strokeColor=none;fillColor=none;align=center;verticalAlign=middle;whiteSpace=wrap;rounded=0;fontColor=#000000;" vertex="1" parent="1">
                    <mxGeometry x="580" y="480" width="60" height="30" as="geometry"/>
                </mxCell>
                <mxCell id="16" value="PostgreSQL" style="text;html=1;strokeColor=none;fillColor=none;align=center;verticalAlign=middle;whiteSpace=wrap;rounded=0;fontColor=#000000;" vertex="1" parent="1">
                    <mxGeometry x="579" y="280" width="60" height="30" as="geometry"/>
                </mxCell>
                <mxCell id="18" value="" style="rounded=1;whiteSpace=wrap;html=1;dashed=1;fillColor=none;strokeColor=#000000;" vertex="1" parent="1">
                    <mxGeometry x="122.05" y="400" width="570" height="120" as="geometry"/>
                </mxCell>
                <mxCell id="4" value="" style="rounded=1;whiteSpace=wrap;html=1;fillColor=none;strokeColor=#000000;" vertex="1" parent="1">
                    <mxGeometry x="343.05" y="199" width="120" height="310" as="geometry"/>
                </mxCell>
                <mxCell id="3" value="" style="rounded=1;whiteSpace=wrap;html=1;fillColor=none;strokeColor=#000000;fontColor=#000000;" vertex="1" parent="1">
                    <mxGeometry x="550" y="199" width="120" height="310" as="geometry"/>
                </mxCell>
                <mxCell id="2" value="" style="rounded=1;whiteSpace=wrap;html=1;fillColor=none;strokeColor=#1C1C1C;" vertex="1" parent="1">
                    <mxGeometry x="140" y="200" width="120" height="310" as="geometry"/>
                </mxCell>
                <mxCell id="17" value="" style="rounded=1;whiteSpace=wrap;html=1;dashed=1;fillColor=none;strokeColor=#000000;" vertex="1" parent="1">
                    <mxGeometry x="124" y="190" width="570" height="120" as="geometry"/>
                </mxCell>
                <mxCell id="29" value="" style="rounded=0;whiteSpace=wrap;html=1;fontSize=14;fontColor=#000000;strokeColor=#000000;fillColor=none;gradientColor=#ffffff;dashed=1;" vertex="1" parent="1">
                    <mxGeometry x="110" y="180" width="600" height="350" as="geometry"/>
                </mxCell>
                <mxCell id="30" value="AZ-2" style="text;html=1;strokeColor=none;fillColor=none;align=center;verticalAlign=middle;whiteSpace=wrap;rounded=0;dashed=1;fontSize=14;fontColor=#000000;fontStyle=1" vertex="1" parent="1">
                    <mxGeometry x="270" y="400" width="60" height="30" as="geometry"/>
                </mxCell>
                <mxCell id="31" value="AZ-1" style="text;html=1;strokeColor=none;fillColor=none;align=center;verticalAlign=middle;whiteSpace=wrap;rounded=0;dashed=1;fontSize=14;fontColor=#000000;fontStyle=1" vertex="1" parent="1">
                    <mxGeometry x="270" y="190" width="60" height="30" as="geometry"/>
                </mxCell>
                <mxCell id="33" value="VMSS Autoscaling BE" style="text;html=1;strokeColor=none;fillColor=none;align=center;verticalAlign=middle;whiteSpace=wrap;rounded=0;dashed=1;fontSize=14;fontColor=#000000;fontFamily=Verdana;fontStyle=0" vertex="1" parent="1">
                    <mxGeometry x="373.04999999999995" y="335" width="60" height="30" as="geometry"/>
                </mxCell>
                <mxCell id="41" value="" style="verticalLabelPosition=bottom;html=1;verticalAlign=top;align=center;strokeColor=none;fillColor=#00BEF2;shape=mxgraph.azure.user;dashed=1;fontSize=14;fontColor=#000000;" vertex="1" parent="1">
                    <mxGeometry x="-289" y="314" width="60" height="80" as="geometry"/>
                </mxCell>
                <mxCell id="44" value="" style="shape=singleArrow;whiteSpace=wrap;html=1;arrowWidth=0.4;arrowSize=0.4;fontSize=14;verticalAlign=top;fillColor=#00BEF2;strokeColor=none;fontColor=#000000;dashed=1;" vertex="1" parent="1">
                    <mxGeometry x="-229" y="345" width="92" height="20" as="geometry"/>
                </mxCell>
                <mxCell id="32" value="VMSS Autoscaling FE" style="text;html=1;strokeColor=none;fillColor=none;align=center;verticalAlign=middle;whiteSpace=wrap;rounded=0;dashed=1;fontSize=14;fontColor=#000000;fontFamily=Verdana;" vertex="1" parent="1">
                    <mxGeometry x="167.95" y="335" width="60" height="30" as="geometry"/>
                </mxCell>
                <mxCell id="60" value="" style="edgeStyle=none;html=1;fontSize=14;fontColor=#000000;strokeColor=#000000;entryX=-0.006;entryY=0.536;entryDx=0;entryDy=0;entryPerimeter=0;" edge="1" parent="1" source="49" target="20">
                    <mxGeometry relative="1" as="geometry">
                        <mxPoint x="78" y="345" as="targetPoint"/>
                    </mxGeometry>
                </mxCell>
                <mxCell id="49" value="" style="rounded=0;whiteSpace=wrap;html=1;fontSize=14;strokeColor=#6c8ebf;fillColor=#dae8fc;" vertex="1" parent="1">
                    <mxGeometry x="-140" y="220" width="136" height="250" as="geometry"/>
                </mxCell>
                <mxCell id="19" value="" style="rounded=1;whiteSpace=wrap;html=1;fillColor=none;strokeColor=#000000;" vertex="1" parent="1">
                    <mxGeometry x="-120" y="280" width="100" height="160" as="geometry"/>
                </mxCell>
                <mxCell id="25" value="" style="sketch=0;aspect=fixed;html=1;points=[];align=center;image;fontSize=12;image=img/lib/mscae/Application_Gateway.svg;fillColor=#98A2B0;gradientColor=#ffffff;direction=north;" vertex="1" parent="1">
                    <mxGeometry x="-100" y="315" width="50" height="50" as="geometry"/>
                </mxCell>
                <mxCell id="27" value="Application GW" style="text;html=1;strokeColor=none;fillColor=none;align=center;verticalAlign=middle;whiteSpace=wrap;rounded=0;fontSize=14;fontColor=#000000;" vertex="1" parent="1">
                    <mxGeometry x="-100" y="390" width="60" height="30" as="geometry"/>
                </mxCell>
                <mxCell id="39" value="" style="shape=image;imageAspect=0;aspect=fixed;verticalLabelPosition=bottom;verticalAlign=top;dashed=1;fontSize=14;fontColor=#000000;strokeColor=#000000;fillColor=#FFFFFF;gradientColor=#ffffff;image=data:image/png,iVBORw0KGgoAAAANSUhEUgAAATEAAAClCAMAAAADOzq7AAABLFBMVEX///85mcZ/ugD8/Pz5+fn39/f09PTv7++pqany8vLt7e3o6Oi+vr7Z2dnHx8e2trbi4uLPz8+jo6Ovr6/V1dXJycmgnZumpqbe3t6AvgDx9/otl8d+uQA5m8iYnJ1osNOt02WOtstTmbys0uXo8vfJ4e2kv81SocfCzdKxxdCUm5+NsE52mayHm6Vlr9JqqciBsclLn8e7y9LZ6vL4+/HN4qaTxTOdtXKcnpV4rchTqNGlusVror6OwtyjzeKRxN3j7su52YXm7tXF3Zu42X/U5rSbyEbh7M7D3pKv0m+eyVLX38awzXyw1G7F1aaVxDyfw12zy4nCybafu2umuIW8vrWMuDehr4qWrWyLrFVpmbGXpHqLs0OSpm2Etx+PrF2YoYfAzKutupSrsp0vBfxJAAAOIUlEQVR4nO2d6V/bOBPH49i574Pg4BgKpQ2FUpoSKKV9nuVqlx7bc3ttuXb3//8fVpJtSKzRQbAVuZ/+XvFmkObrmYksy+NU6pd+KcGamzNTKVPhgKbyEaOUeWdhd3fhdsYyVXlg3lY9YqRaXnAcwzCc3c1sRo0Hyw/wgIbzAI+oYsBotbxLpo80WClmLQUeLO/6AzqDlZySESPV8iAAZjgblZIKBxauRhyslAoJQ3Z5vbHcpwhZ7PPfdEaGTByyzd3R6TvPZuxi7PP/3+iQhvsoUcg2B8aY+uVG/EH2YHxM916CkIWBuYNa1c5ZMY8aIpYkZJtuaO7GUr5ciT0tx7PSQ5ZLBLJwhKGpr+fL7WLcMXYnTCwpUXaHijB3qaMixkwqyAz3bgKiDAI232wpqGNW7kkSkcHA8ip+K81snUZm3K3rjYwBrDZjxz9v08rZG0CUaY2MBuYsdTCwSlHBrbGZKQLItI6y2/QV9iKsUoz/JimF87JYARJzsZ7TdCuDDQwVMSXEzGwpScimDoyJzNETGQ3MUQ3MQwbUMoRMRSG9nv7Pq2HqJouQFW0oyuycoo1gWbGBKYwwLIys8lD/KNOghgViIrN1QqZNhGGZFkpMzZH9phMwv5YByB5iZFow0wwYMzHdJ7aalbRI2gFLeav/RTDKNECmIzCCzAaQ6RBlwDYeufmuThUYuS2vA7XsiaJbXLYgYNOPMCy8k7EYnhx+2qzmAT1rVvoCYyFzyQP6qc1JZ2A+MjoxN1Q8oGfMaAG4+Q5qmA6beLiWQcja00JGA9MpwrAIMrqW9dtTuaJzPGA6RBgWRnYXQDaNWsYFpkeEYRFk9NMHnJiKkTGB6VLDAhFkdC3rq0Y2t8sBpk+EYZmZHIhsRemVBYA52tWwQAQZVcu8M3mq5uCf0NW9hgUiyKhaZvTVHWNkAtMvJT2xE1MNsuXk1LBACFkJ+MUcqKlly3R865ySnuBa5gxUHJbd3OUA063oX8m0wFqm4Ej2JisldY4wLBxl94DEjDvK6BObmi5caU0nMekzwf46TN+ifyWcmHSUxXu+GACGIqyjew0LRJABSRIfsjtQ0V/tJCPCsOBaFh+yO8DlGSSjhgUiUUZ5EdcpdvrEZoJqWCCErPSIvvJGHEeyAWBJ+ZUcFUYG1DJ8WDbiQxkgsKCGJQcYu/xHjQxOyQQV/SuRxKTdifhINn08TPubb7a8WhbvKXYusCSlpCfTKkDIIjxfDAJLYg0LRJD1aWR3Izr5eZvO+aTWsEAY2Qpd/vFh2QgigD6xObIOS2KEYXnI4klMAJh0DRvube3fQtrfOrBM6Wg0D7aOsdXx1oEpb4UGOzxCVi8P94YSVgQZkJg3P5I9eQ0znx9td9M9om76xf7vctAOjl90u4HVq0NZ1Hsjg22/fJ4V9qFhIrvh+WIAmCMHbA85nu6lfaE/ukeljDCJh/ujVsho+zAntkod3Boxw2O9+l3IzEMG1LIbIZt4WTG81Rt13PfkbUHg/VY3bJTuvXtdEDl/nO6GrXovhTWDXcsmRzZxDdujPSduvOHuEQz/6AFmCDT/VOHwFWj27jWKTq57ppWNuJbBNUwC2Fb4kl8m2fs6+/Wggxcsqw+8nYXhNsNs+7Xo/CZBFuF7XxPXsD0WMOw8s0oM3zGt0m/ZNzDmK6bVWVu07RVt+YdrmASwA7bnSH+zJsP2HKXYRyayfSj//cvzXngYESNrR1TLJq5h5gu2D/jCf4Zfsud4jq3adThcnvPMuh8kkGVL7Uhq2cQRxi5ivhefGpDzBwKrx7DvvFTGoD8LX+knyCKoZZOvw4bb3GDBXrRL9Fxu8Y1YvgsuT/rTjHALhyQmhOxatQwAZkjuVnDTBKv7eIbur7IntPoThyY1Gut38gq0+Fw1QXbD8g+lpOxTI9YS4UpfyrQXL0XE0mtlIDQFuYz0Fbg8NDJcy+ikkt/JoJssydYwlJRCH9Lp1kw4XJhrqiv1Ps/UqWg5FJqBoGFkk++XmcCjFmO9Myu1vbMlDBaUYFSjqOcSnL+WK1RJuiUcrVcDQIPIgL1/V1wFicAi1mm2pPbDDiV8/1ZrhK77vtgIsEJlTHx9dqoVia5UGBnUwaANFU9K9MtGhnO/ky8LV9BYRxK+n1PXXRwr6S5tlTIlLs8FmrdEnCBkQMOOZ+WKOKdTc+F+hNh0vVmTilBTtErAWmtV7cLYv+Ivej2d4B5m4xMYSph9rck18jJNoHwPkNcFMTH6PAoilgd+4CYnVg5lihSxfNgqNZQY7KtUIcNT36SIuYMWUDwpWQs0Mfe+bFu/I4lE+U7+2aiVFGeamClhdtGSJAb1YVzKS+U0cEdpLLXKcm39pCo/hf9YbNQ9pzinLJnKL00MeFn0r7zM4gQ6TI1WFzLhmZJYvCPff1DEOPtDHCup1UWzJVOKUvBxwlWpGDPNR0CQDZ7KvcZpCV1PpztUHZNZwe7QWSkR0WvNWkMqxqDyvY5nKlGMrOwiEGX9stRqzjwS3iGeNKnfSpO/14Ot1qB+n+K7pB+zwDIOAga8B3MfrdpnbIkFmZkp0m0PZF/jMQ9EPnRPm9RvtqxVOFgy/M0edCe+I1e7YWDNllQZw/fyUJtQuffrTOuNYKfLc2J8HmbmWBBkOCmBYBFtxp3jWxXxTxYAzCHAwL08yGuoTSiKsobEW5xWkb97gYIFORFu2WwV+dHiWVFlwczyBzvbkSpjzAhryB6QQnlZoW/lETKJF1/NzFuu619QcaCdMLN7fKt5yApdW/5gp02Z5QEPmOwOGUIGPC6WelcYBSjPi94Fmgl9s4YqwQdOgp1dMEqKVeAUge4JLt11UVJGAYw0CoJOPsq0ikC02c53fzTzNWg3FVm9YRP7MQ9bIbMS5+mbVOkG3nh3rg+MILsH5KXMS/xWtvSBUce7p6t4mw1a4pjIioX5dJ5YQfO3svY7+Pqgnxj/6nDdjibCyFQKJfq1Vylk+DTz2zPAje7Zj3ly1aEwxVZ/9yCrHseK/Eq9h5B1T3Zk+mlDPRUmA0aeF0ArWUlkH9/TPny5mJ9FrjOuOrE6oZwPrFiLQfwrRQdnN/19x3suwXc7ugjzPYBWshKdgvD7P41/vox53z077TTzGBjrqvtWobA83WnO1jhWOJ0rH0/CAXZx+c4nb6IWG9gkxztZyzJJZO3qP5/Q3D2lT1BqzbZqVY7r5Bohq/Oeb9PtnZxKWOE2w41/H6M64A92do55tcrCN/I4C9fJDncivxnIpB7O241y7eu3tbXv598QLuRCrdyocO+0cCWwG1Vk9X1tDVl1mpiX0Aq3TWlXy/8+Pl/DZhfICvFCmAXdjiOsYZdzwStZmphhSESZlS3WK41qudbKI7WQ48jzuuB80ohVy7eqiq1IqwH70iowKwn6MscAjHQJBU7xkXaEQmTEe7uNHMGqzrSR5wVhP1bAqiRnVcJWxKxabbTtkgizFQOwFCmrwLl3uaaXmFmuVLcrWHYduSDTvxbl2LiV6CTo2Fh2pd0mZjnROVjOwvVmR4dN8OCjVJQRPzLZQi5XzOUKWenPcCIra2KrYpGYWSKzm998MwWf4gv6hIqZYU8s7MA13i6ZzCoVWEkcaJ+jH/9EkZKeELIGWP516EY7oTjrsAhe5mIcFtKm5/EE4hT9SF7lYpziSy6yOJYV42Kc4kPjPNSo5b204geWIhs4Pw0yJcDYyLT6sIKUYlq4AgPB325KHLKodlwlhJFBmz9uopApSklPPwMyAJgRGzCyyGAkppbfCANE1zA3RmDeBgEYZU70LVxikcIaFgj+eIeGH7wCxathsXUIYCFzE5CYNLB4U9IXQgY0vI+hUVDkoj+/4Mb3Kzk6LvkSBfBQzr2nNzIoJdfjTklP8DcCdC//TGC8p1RRiYVM58SE1mHrClLSF/xZBZ2RAeswJTUskMno3k5qmY6NfKayrBgX6RIKJKahJTJot0JR0b8SRgadL9MRGbAOUw+M2b/RGGiHjAdMadVlIHPcR3ohA74bNo0II1NByKBetIZWyGBgs2rWYdRkGK2VdKplcEpOCViADPiuQpzt268lzYAxe54Zg0d6INMqJf0pMQ5luCs6INMQmIesASFT8Y0YgeCb7ykDYx/KUPJZHa60q2GBSJQBfYL6U0YG3xpxDserE+sci4IvEfFmpWdK+pNjNPCaJjKtgTEfZKr7EB0lTg2bdkp68pBReTk1ZEDHjoFGEUbEeFzeb0wFGZ2S2gHzXg4CHpdP4zPUmtewS+GXg2hkqr92m+LVsGmvEMPCj8sBZBuKkQEr/YGewPwTBlReGhtKExNIyYFWv5JjIo/LgcRUiAyqYasa1rBA+FAG8IFgdVEG3BoZq9pGGBb87FfmbfxIBNWwVU1rWCAWMom3viIQ/StJalhVY2BeLQOQPbQVIKM7zfnA9KxhgeATBm45/tPFVKM5lxR9vSMMC/wOqbvYEDaDuanCzUmdQTKA+chCT+WcZ3KNvG6i38aHdBMDLIgyZ5yYVGPVG2m8cWSSgPmPy8eQuX8BLf0iVqjwe8B0XYeFhZGtjNYyZ51qNhm5Rtu5+jWM3ydDKxFkI7VsQLfnjFwjbzInKyU9ke+QBk/lXGOdtOeMl5h5+eXbJCxcaWFk/uNy7EBesivrTUbMeN89dcmX/BIHzH/2+/RZv790f77JatMW7YC5yuJGv/9sveP10UoYMA9ZpUpa6bS8z6nGPWCWjIf79uC2UIkDFvSHwp10qoLuTlGNhy6RP56dzM+3el2LcCcdYXenqMYr1fFwtprxYhDpP1QsFXPi7k4RjZcpkPHEn0jVVpf9d37S8WLRtZoVJXC8X/ql6PUfL9znteB/TKMAAAAASUVORK5CYII=;" vertex="1" parent="1">
                    <mxGeometry x="-134" y="235" width="36.97" height="20" as="geometry"/>
                </mxCell>
                <mxCell id="38" value="Vnet-appGW" style="text;html=1;strokeColor=none;fillColor=none;align=center;verticalAlign=middle;whiteSpace=wrap;rounded=0;dashed=1;fontSize=14;fontColor=#000000;labelBorderColor=default;fontStyle=1" vertex="1" parent="1">
                    <mxGeometry x="-93" y="230" width="60" height="30" as="geometry"/>
                </mxCell>
                <mxCell id="57" value="Vnet-appServer" style="text;html=1;strokeColor=none;fillColor=none;align=center;verticalAlign=middle;whiteSpace=wrap;rounded=0;dashed=1;fontSize=14;fontColor=#000000;fontStyle=1" vertex="1" parent="1">
                    <mxGeometry x="178" y="132.97" width="60" height="30" as="geometry"/>
                </mxCell>
                <mxCell id="58" value="" style="shape=image;imageAspect=0;aspect=fixed;verticalLabelPosition=bottom;verticalAlign=top;dashed=1;fontSize=14;fontColor=#000000;strokeColor=#000000;fillColor=#FFFFFF;gradientColor=#ffffff;image=data:image/png,iVBORw0KGgoAAAANSUhEUgAAATEAAAClCAMAAAADOzq7AAABLFBMVEX///85mcZ/ugD8/Pz5+fn39/f09PTv7++pqany8vLt7e3o6Oi+vr7Z2dnHx8e2trbi4uLPz8+jo6Ovr6/V1dXJycmgnZumpqbe3t6AvgDx9/otl8d+uQA5m8iYnJ1osNOt02WOtstTmbys0uXo8vfJ4e2kv81SocfCzdKxxdCUm5+NsE52mayHm6Vlr9JqqciBsclLn8e7y9LZ6vL4+/HN4qaTxTOdtXKcnpV4rchTqNGlusVror6OwtyjzeKRxN3j7su52YXm7tXF3Zu42X/U5rSbyEbh7M7D3pKv0m+eyVLX38awzXyw1G7F1aaVxDyfw12zy4nCybafu2umuIW8vrWMuDehr4qWrWyLrFVpmbGXpHqLs0OSpm2Etx+PrF2YoYfAzKutupSrsp0vBfxJAAAOIUlEQVR4nO2d6V/bOBPH49i574Pg4BgKpQ2FUpoSKKV9nuVqlx7bc3ttuXb3//8fVpJtSKzRQbAVuZ/+XvFmkObrmYksy+NU6pd+KcGamzNTKVPhgKbyEaOUeWdhd3fhdsYyVXlg3lY9YqRaXnAcwzCc3c1sRo0Hyw/wgIbzAI+oYsBotbxLpo80WClmLQUeLO/6AzqDlZySESPV8iAAZjgblZIKBxauRhyslAoJQ3Z5vbHcpwhZ7PPfdEaGTByyzd3R6TvPZuxi7PP/3+iQhvsoUcg2B8aY+uVG/EH2YHxM916CkIWBuYNa1c5ZMY8aIpYkZJtuaO7GUr5ciT0tx7PSQ5ZLBLJwhKGpr+fL7WLcMXYnTCwpUXaHijB3qaMixkwqyAz3bgKiDAI232wpqGNW7kkSkcHA8ip+K81snUZm3K3rjYwBrDZjxz9v08rZG0CUaY2MBuYsdTCwSlHBrbGZKQLItI6y2/QV9iKsUoz/JimF87JYARJzsZ7TdCuDDQwVMSXEzGwpScimDoyJzNETGQ3MUQ3MQwbUMoRMRSG9nv7Pq2HqJouQFW0oyuycoo1gWbGBKYwwLIys8lD/KNOghgViIrN1QqZNhGGZFkpMzZH9phMwv5YByB5iZFow0wwYMzHdJ7aalbRI2gFLeav/RTDKNECmIzCCzAaQ6RBlwDYeufmuThUYuS2vA7XsiaJbXLYgYNOPMCy8k7EYnhx+2qzmAT1rVvoCYyFzyQP6qc1JZ2A+MjoxN1Q8oGfMaAG4+Q5qmA6beLiWQcja00JGA9MpwrAIMrqW9dtTuaJzPGA6RBgWRnYXQDaNWsYFpkeEYRFk9NMHnJiKkTGB6VLDAhFkdC3rq0Y2t8sBpk+EYZmZHIhsRemVBYA52tWwQAQZVcu8M3mq5uCf0NW9hgUiyKhaZvTVHWNkAtMvJT2xE1MNsuXk1LBACFkJ+MUcqKlly3R865ySnuBa5gxUHJbd3OUA063oX8m0wFqm4Ej2JisldY4wLBxl94DEjDvK6BObmi5caU0nMekzwf46TN+ifyWcmHSUxXu+GACGIqyjew0LRJABSRIfsjtQ0V/tJCPCsOBaFh+yO8DlGSSjhgUiUUZ5EdcpdvrEZoJqWCCErPSIvvJGHEeyAWBJ+ZUcFUYG1DJ8WDbiQxkgsKCGJQcYu/xHjQxOyQQV/SuRxKTdifhINn08TPubb7a8WhbvKXYusCSlpCfTKkDIIjxfDAJLYg0LRJD1aWR3Izr5eZvO+aTWsEAY2Qpd/vFh2QgigD6xObIOS2KEYXnI4klMAJh0DRvube3fQtrfOrBM6Wg0D7aOsdXx1oEpb4UGOzxCVi8P94YSVgQZkJg3P5I9eQ0znx9td9M9om76xf7vctAOjl90u4HVq0NZ1Hsjg22/fJ4V9qFhIrvh+WIAmCMHbA85nu6lfaE/ukeljDCJh/ujVsho+zAntkod3Boxw2O9+l3IzEMG1LIbIZt4WTG81Rt13PfkbUHg/VY3bJTuvXtdEDl/nO6GrXovhTWDXcsmRzZxDdujPSduvOHuEQz/6AFmCDT/VOHwFWj27jWKTq57ppWNuJbBNUwC2Fb4kl8m2fs6+/Wggxcsqw+8nYXhNsNs+7Xo/CZBFuF7XxPXsD0WMOw8s0oM3zGt0m/ZNzDmK6bVWVu07RVt+YdrmASwA7bnSH+zJsP2HKXYRyayfSj//cvzXngYESNrR1TLJq5h5gu2D/jCf4Zfsud4jq3adThcnvPMuh8kkGVL7Uhq2cQRxi5ivhefGpDzBwKrx7DvvFTGoD8LX+knyCKoZZOvw4bb3GDBXrRL9Fxu8Y1YvgsuT/rTjHALhyQmhOxatQwAZkjuVnDTBKv7eIbur7IntPoThyY1Gut38gq0+Fw1QXbD8g+lpOxTI9YS4UpfyrQXL0XE0mtlIDQFuYz0Fbg8NDJcy+ikkt/JoJssydYwlJRCH9Lp1kw4XJhrqiv1Ps/UqWg5FJqBoGFkk++XmcCjFmO9Myu1vbMlDBaUYFSjqOcSnL+WK1RJuiUcrVcDQIPIgL1/V1wFicAi1mm2pPbDDiV8/1ZrhK77vtgIsEJlTHx9dqoVia5UGBnUwaANFU9K9MtGhnO/ky8LV9BYRxK+n1PXXRwr6S5tlTIlLs8FmrdEnCBkQMOOZ+WKOKdTc+F+hNh0vVmTilBTtErAWmtV7cLYv+Ivej2d4B5m4xMYSph9rck18jJNoHwPkNcFMTH6PAoilgd+4CYnVg5lihSxfNgqNZQY7KtUIcNT36SIuYMWUDwpWQs0Mfe+bFu/I4lE+U7+2aiVFGeamClhdtGSJAb1YVzKS+U0cEdpLLXKcm39pCo/hf9YbNQ9pzinLJnKL00MeFn0r7zM4gQ6TI1WFzLhmZJYvCPff1DEOPtDHCup1UWzJVOKUvBxwlWpGDPNR0CQDZ7KvcZpCV1PpztUHZNZwe7QWSkR0WvNWkMqxqDyvY5nKlGMrOwiEGX9stRqzjwS3iGeNKnfSpO/14Ot1qB+n+K7pB+zwDIOAga8B3MfrdpnbIkFmZkp0m0PZF/jMQ9EPnRPm9RvtqxVOFgy/M0edCe+I1e7YWDNllQZw/fyUJtQuffrTOuNYKfLc2J8HmbmWBBkOCmBYBFtxp3jWxXxTxYAzCHAwL08yGuoTSiKsobEW5xWkb97gYIFORFu2WwV+dHiWVFlwczyBzvbkSpjzAhryB6QQnlZoW/lETKJF1/NzFuu619QcaCdMLN7fKt5yApdW/5gp02Z5QEPmOwOGUIGPC6WelcYBSjPi94Fmgl9s4YqwQdOgp1dMEqKVeAUge4JLt11UVJGAYw0CoJOPsq0ikC02c53fzTzNWg3FVm9YRP7MQ9bIbMS5+mbVOkG3nh3rg+MILsH5KXMS/xWtvSBUce7p6t4mw1a4pjIioX5dJ5YQfO3svY7+Pqgnxj/6nDdjibCyFQKJfq1Vylk+DTz2zPAje7Zj3ly1aEwxVZ/9yCrHseK/Eq9h5B1T3Zk+mlDPRUmA0aeF0ArWUlkH9/TPny5mJ9FrjOuOrE6oZwPrFiLQfwrRQdnN/19x3suwXc7ugjzPYBWshKdgvD7P41/vox53z077TTzGBjrqvtWobA83WnO1jhWOJ0rH0/CAXZx+c4nb6IWG9gkxztZyzJJZO3qP5/Q3D2lT1BqzbZqVY7r5Bohq/Oeb9PtnZxKWOE2w41/H6M64A92do55tcrCN/I4C9fJDncivxnIpB7O241y7eu3tbXv598QLuRCrdyocO+0cCWwG1Vk9X1tDVl1mpiX0Aq3TWlXy/8+Pl/DZhfICvFCmAXdjiOsYZdzwStZmphhSESZlS3WK41qudbKI7WQ48jzuuB80ohVy7eqiq1IqwH70iowKwn6MscAjHQJBU7xkXaEQmTEe7uNHMGqzrSR5wVhP1bAqiRnVcJWxKxabbTtkgizFQOwFCmrwLl3uaaXmFmuVLcrWHYduSDTvxbl2LiV6CTo2Fh2pd0mZjnROVjOwvVmR4dN8OCjVJQRPzLZQi5XzOUKWenPcCIra2KrYpGYWSKzm998MwWf4gv6hIqZYU8s7MA13i6ZzCoVWEkcaJ+jH/9EkZKeELIGWP516EY7oTjrsAhe5mIcFtKm5/EE4hT9SF7lYpziSy6yOJYV42Kc4kPjPNSo5b204geWIhs4Pw0yJcDYyLT6sIKUYlq4AgPB325KHLKodlwlhJFBmz9uopApSklPPwMyAJgRGzCyyGAkppbfCANE1zA3RmDeBgEYZU70LVxikcIaFgj+eIeGH7wCxathsXUIYCFzE5CYNLB4U9IXQgY0vI+hUVDkoj+/4Mb3Kzk6LvkSBfBQzr2nNzIoJdfjTklP8DcCdC//TGC8p1RRiYVM58SE1mHrClLSF/xZBZ2RAeswJTUskMno3k5qmY6NfKayrBgX6RIKJKahJTJot0JR0b8SRgadL9MRGbAOUw+M2b/RGGiHjAdMadVlIHPcR3ohA74bNo0II1NByKBetIZWyGBgs2rWYdRkGK2VdKplcEpOCViADPiuQpzt268lzYAxe54Zg0d6INMqJf0pMQ5luCs6INMQmIesASFT8Y0YgeCb7ykDYx/KUPJZHa60q2GBSJQBfYL6U0YG3xpxDserE+sci4IvEfFmpWdK+pNjNPCaJjKtgTEfZKr7EB0lTg2bdkp68pBReTk1ZEDHjoFGEUbEeFzeb0wFGZ2S2gHzXg4CHpdP4zPUmtewS+GXg2hkqr92m+LVsGmvEMPCj8sBZBuKkQEr/YGewPwTBlReGhtKExNIyYFWv5JjIo/LgcRUiAyqYasa1rBA+FAG8IFgdVEG3BoZq9pGGBb87FfmbfxIBNWwVU1rWCAWMom3viIQ/StJalhVY2BeLQOQPbQVIKM7zfnA9KxhgeATBm45/tPFVKM5lxR9vSMMC/wOqbvYEDaDuanCzUmdQTKA+chCT+WcZ3KNvG6i38aHdBMDLIgyZ5yYVGPVG2m8cWSSgPmPy8eQuX8BLf0iVqjwe8B0XYeFhZGtjNYyZ51qNhm5Rtu5+jWM3ydDKxFkI7VsQLfnjFwjbzInKyU9ke+QBk/lXGOdtOeMl5h5+eXbJCxcaWFk/uNy7EBesivrTUbMeN89dcmX/BIHzH/2+/RZv790f77JatMW7YC5yuJGv/9sveP10UoYMA9ZpUpa6bS8z6nGPWCWjIf79uC2UIkDFvSHwp10qoLuTlGNhy6RP56dzM+3el2LcCcdYXenqMYr1fFwtprxYhDpP1QsFXPi7k4RjZcpkPHEn0jVVpf9d37S8WLRtZoVJXC8X/ql6PUfL9znteB/TKMAAAAASUVORK5CYII=;" vertex="1" parent="1">
                    <mxGeometry x="122.05" y="135" width="47.95" height="25.94" as="geometry"/>
                </mxCell>
                <mxCell id="23" value="" style="sketch=0;aspect=fixed;html=1;points=[];align=center;image;fontSize=12;image=img/lib/mscae/ResourceGroup.svg;fillColor=none;" vertex="1" parent="1">
                    <mxGeometry x="-140" y="70" width="50" height="40" as="geometry"/>
                </mxCell>
                <mxCell id="24" value="Resource Group" style="text;html=1;strokeColor=none;fillColor=none;align=center;verticalAlign=middle;whiteSpace=wrap;rounded=0;fontSize=16;fontColor=#000000;labelBackgroundColor=none;labelBorderColor=#1C1C1C;fontStyle=1;fontFamily=Comic Sans MS;" vertex="1" parent="1">
                    <mxGeometry x="-84" y="77" width="124" height="25" as="geometry"/>
                </mxCell>
                <mxCell id="61" value="Vnet peering" style="text;html=1;strokeColor=none;fillColor=none;align=center;verticalAlign=middle;whiteSpace=wrap;rounded=0;labelBackgroundColor=none;labelBorderColor=none;fontSize=14;fontColor=#000000;fontFamily=Verdana;fontStyle=1" vertex="1" parent="1">
                    <mxGeometry x="-4.029999999999999" y="350" width="83.03" height="30" as="geometry"/>
                </mxCell>
                <mxCell id="63" value="" style="verticalLabelPosition=bottom;html=1;verticalAlign=top;align=center;strokeColor=none;fillColor=#00BEF2;shape=mxgraph.azure.azure_load_balancer;labelBackgroundColor=none;labelBorderColor=#000000;fontFamily=Verdana;fontSize=16;fontColor=#000000;direction=north;" vertex="1" parent="1">
                    <mxGeometry x="282.5" y="326.38" width="35" height="27.25" as="geometry"/>
                </mxCell>
                <mxCell id="64" value="&lt;font style=&quot;font-size: 11px;&quot;&gt;Api Server Load Balancer&lt;/font&gt;" style="text;html=1;strokeColor=none;fillColor=none;align=center;verticalAlign=middle;whiteSpace=wrap;rounded=0;labelBackgroundColor=none;labelBorderColor=none;fontFamily=Helvetica;fontSize=11;fontColor=#000000;fontStyle=1" vertex="1" parent="1">
                    <mxGeometry x="260" y="360" width="80" height="30" as="geometry"/>
                </mxCell>
                <mxCell id="68" value="" style="endArrow=classic;html=1;fontFamily=Helvetica;fontSize=11;fontColor=#000000;strokeColor=#000000;" edge="1" parent="1">
                    <mxGeometry width="50" height="50" relative="1" as="geometry">
                        <mxPoint x="260" y="343.30351437699755" as="sourcePoint"/>
                        <mxPoint x="283" y="343" as="targetPoint"/>
                    </mxGeometry>
                </mxCell>
                <mxCell id="69" value="" style="endArrow=classic;html=1;fontFamily=Helvetica;fontSize=11;fontColor=#000000;strokeColor=#000000;" edge="1" parent="1">
                    <mxGeometry width="50" height="50" relative="1" as="geometry">
                        <mxPoint x="319" y="343.30351437699755" as="sourcePoint"/>
                        <mxPoint x="342" y="343" as="targetPoint"/>
                    </mxGeometry>
                </mxCell>
                <mxCell id="70" value="" style="endArrow=classic;html=1;fontFamily=Helvetica;fontSize=11;fontColor=#000000;strokeColor=#000000;" edge="1" parent="1">
                    <mxGeometry width="50" height="50" relative="1" as="geometry">
                        <mxPoint x="463" y="353.30351437699755" as="sourcePoint"/>
                        <mxPoint x="550" y="353" as="targetPoint"/>
                    </mxGeometry>
                </mxCell>
            </root>
        </mxGraphModel>
    </diagram>
</mxfile>